HIERARCHY
ROOT hip
{
  OFFSET 0 0 0
  CHANNELS 6 Xposition Yposition Zposition Zrotation Yrotation Xrotation
  JOINT abdomen
  {
    OFFSET 0 20.6881 -0.73152
    CHANNELS 3 Zrotation Xrotation Yrotation
    JOINT chest
    {
      OFFSET 0 11.7043 -0.48768
      CHANNELS 3 Zrotation Xrotation Yrotation
      JOINT neck
      {
        OFFSET 0 22.1894 -2.19456
        CHANNELS 3 Zrotation Xrotation Yrotation
        JOINT head
        {
          OFFSET -0.24384 7.07133 1.2192
          CHANNELS 3 Zrotation Xrotation Yrotation
          JOINT leftEye
          {
            OFFSET 4.14528 8.04674 8.04672
            CHANNELS 3 Zrotation Xrotation Yrotation
            End Site
            {
              OFFSET 1 0 0
            }
          }
          JOINT rightEye
          {
            OFFSET -3.6576 8.04674 8.04672
            CHANNELS 3 Zrotation Xrotation Yrotation
            End Site
            {
              OFFSET 1 0 0
            }
          }
        }
      }
      JOINT rCollar
      {
        OFFSET -2.68224 19.2634 -4.8768
        CHANNELS 3 Zrotation Xrotation Yrotation
        JOINT rShldr
        {
          OFFSET -8.77824 -1.95073 1.46304
          CHANNELS 3 Zrotation Xrotation Yrotation
          JOINT rForeArm
          {
            OFFSET -28.1742 -1.7115 0.48768
            CHANNELS 3 Zrotation Xrotation Yrotation
            JOINT rHand
            {
              OFFSET -22.5879 0.773209 7.07136
              CHANNELS 3 Zrotation Xrotation Yrotation
              JOINT rThumb1
              {
                OFFSET -1.2192 -0.487915 3.41376
                CHANNELS 3 Zrotation Xrotation Yrotation
                JOINT rThumb2
                {
                  OFFSET -3.37035 -0.52449 3.41376
                  CHANNELS 3 Zrotation Xrotation Yrotation
                  End Site
                  {
                    OFFSET -1.78271 -1.18214 1.43049
                  }
                }
              }
              JOINT rIndex1
              {
                OFFSET -7.75947 0.938293 5.60832
                CHANNELS 3 Zrotation Xrotation Yrotation
                JOINT rIndex2
                {
                  OFFSET -2.54057 -0.884171 1.56538
                  CHANNELS 3 Zrotation Xrotation Yrotation
                  End Site
                  {
                    OFFSET -1.62519 -0.234802 1.16502
                  }
                }
              }
              JOINT rMid1
              {
                OFFSET -8.24714 1.18213 3.41376
                CHANNELS 3 Zrotation Xrotation Yrotation
                JOINT rMid2
                {
                  OFFSET -3.10165 -0.590103 1.0647
                  CHANNELS 3 Zrotation Xrotation Yrotation
                  End Site
                  {
                    OFFSET -2.48547 -0.328903 0.83742
                  }
                }
              }
              JOINT rRing1
              {
                OFFSET -8.82822 0.546677 1.51678
                CHANNELS 3 Zrotation Xrotation Yrotation
                JOINT rRing2
                {
                  OFFSET -2.60934 -0.819778 -0.0198488
                  CHANNELS 3 Zrotation Xrotation Yrotation
                  End Site
                  {
                    OFFSET -2.33842 -0.294052 0.168128
                  }
                }
              }
              JOINT rPinky1
              {
                OFFSET -8.27202 -0.0477905 -0.4584
                CHANNELS 3 Zrotation Xrotation Yrotation
                JOINT rPinky2
                {
                  OFFSET -1.82734 -0.647385 -0.700984
                  CHANNELS 3 Zrotation Xrotation Yrotation
                  End Site
                  {
                    OFFSET -1.69225 -0.51767 -0.607171
                  }
                }
              }
            }
          }
        }
      }
      JOINT lCollar
      {
        OFFSET 2.68224 19.2634 -4.8768
        CHANNELS 3 Zrotation Xrotation Yrotation
        JOINT lShldr
        {
          OFFSET 8.77824 -1.95073 1.46304
          CHANNELS 3 Zrotation Xrotation Yrotation
          JOINT lForeArm
          {
            OFFSET 28.1742 -1.7115 0.48768
            CHANNELS 3 Zrotation Xrotation Yrotation
            JOINT lHand
            {
              OFFSET 22.5879 0.773209 7.07136
              CHANNELS 3 Zrotation Xrotation Yrotation
              JOINT lThumb1
              {
                OFFSET 1.2192 -0.487915 3.41376
                CHANNELS 3 Zrotation Xrotation Yrotation
                JOINT lThumb2
                {
                  OFFSET 3.37035 -0.52449 3.41376
                  CHANNELS 3 Zrotation Xrotation Yrotation
                  End Site
                  {
                    OFFSET 1.78271 -1.18214 1.43049
                  }
                }
              }
              JOINT lIndex1
              {
                OFFSET 7.75947 0.938293 5.60832
                CHANNELS 3 Zrotation Xrotation Yrotation
                JOINT lIndex2
                {
                  OFFSET 2.54057 -0.884171 1.56538
                  CHANNELS 3 Zrotation Xrotation Yrotation
                  End Site
                  {
                    OFFSET 1.62519 -0.234802 1.16502
                  }
                }
              }
              JOINT lMid1
              {
                OFFSET 8.24714 1.18213 3.41376
                CHANNELS 3 Zrotation Xrotation Yrotation
                JOINT lMid2
                {
                  OFFSET 3.10165 -0.590103 1.0647
                  CHANNELS 3 Zrotation Xrotation Yrotation
                  End Site
                  {
                    OFFSET 2.48547 -0.328903 0.83742
                  }
                }
              }
              JOINT lRing1
              {
                OFFSET 8.82822 0.546677 1.51678
                CHANNELS 3 Zrotation Xrotation Yrotation
                JOINT lRing2
                {
                  OFFSET 2.60934 -0.819778 -0.0198488
                  CHANNELS 3 Zrotation Xrotation Yrotation
                  End Site
                  {
                    OFFSET 2.33842 -0.294052 0.168128
                  }
                }
              }
              JOINT lPinky1
              {
                OFFSET 8.27202 -0.0477905 -0.4584
                CHANNELS 3 Zrotation Xrotation Yrotation
                JOINT lPinky2
                {
                  OFFSET 1.82734 -0.647385 -0.700984
                  CHANNELS 3 Zrotation Xrotation Yrotation
                  End Site
                  {
                    OFFSET 1.69225 -0.51767 -0.607171
                  }
                }
              }
            }
          }
        }
      }
    }
  }
  JOINT rButtock
  {
    OFFSET -8.77824 4.35084 1.2192
    CHANNELS 3 Zrotation Xrotation Yrotation
    JOINT rThigh
    {
      OFFSET 0 -1.70687 -2.19456
      CHANNELS 3 Zrotation Xrotation Yrotation
      JOINT rShin
      {
        OFFSET 0 -36.8199 0.73152
        CHANNELS 3 Zrotation Xrotation Yrotation
        JOINT rFoot
        {
          OFFSET 0.73152 -45.1104 -5.12064
          CHANNELS 3 Zrotation Xrotation Yrotation
          End Site
          {
            OFFSET -1.1221 -3.69964 12.103
          }
        }
      }
    }
  }
  JOINT lButtock
  {
    OFFSET 8.77824 4.35084 1.2192
    CHANNELS 3 Zrotation Xrotation Yrotation
    JOINT lThigh
    {
      OFFSET 0 -1.70687 -2.19456
      CHANNELS 3 Zrotation Xrotation Yrotation
      JOINT lShin
      {
        OFFSET 0 -36.8199 0.73152
        CHANNELS 3 Zrotation Xrotation Yrotation
        JOINT lFoot
        {
          OFFSET -0.73152 -45.1104 -5.12064
          CHANNELS 3 Zrotation Xrotation Yrotation
          End Site
          {
            OFFSET 1.1221 -3.69964 12.103
          }
        }
      }
    }
  }
}
MOTION
Frames:	4
Frame Time:	0.03333
0.0 0.0 0.0 0.0 0.0 0.0 0.0 0.0 0.0 0.0 0.0 0.0 0.0 0.0 0.0 0.0 0.0 0.0 0.0 0.0 0.0 0.0 0.0 0.0 0.0 0.0 0.0 0.0 0.0 0.0 0.0 0.0 0.0 0.0 0.0 0.0 0.0 0.0 0.0 0.0 0.0 0.0 0.0 0.0 0.0 0.0 0.0 0.0 0.0 0.0 0.0 0.0 0.0 0.0 0.0 0.0 0.0 0.0 0.0 0.0 0.0 0.0 0.0 0.0 0.0 0.0 0.0 0.0 0.0 0.0 0.0 0.0 0.0 0.0 0.0 0.0 0.0 0.0 0.0 0.0 0.0 0.0 0.0 0.0 0.0 0.0 0.0 0.0 0.0 0.0 0.0 0.0 0.0 0.0 0.0 0.0 0.0 0.0 0.0 0.0 0.0 0.0 0.0 0.0 0.0 0.0 0.0 0.0 0.0 0.0 0.0 0.0 0.0 0.0 0.0 0.0 0.0 0.0 0.0 0.0 0.0 0.0 0.0 0.0 0.0 0.0 0.0 0.0 0.0 0.0 0.0 0.0
-3.7807 81.7084 -4.1896 -177.680615 -56.560005 162.000054 -12.73051 39.942644 7.843674 2.557753 -9.090641 12.238923 -8.498224 17.141882 -11.490337 13.608217 -32.578138 -22.751145 -0.0013 -0.0 0.001534 -0.0013 -0.0 0.001534 -13.743798 42.431447 15.569642 76.009019 -4.360149 80.574648 168.932659 -67.749294 44.191898 -172.801052 3.348595 141.816148 -94.791052 37.828987 54.284372 -79.512455 -3.450573 57.845131 -140.683508 1.50573 116.183537 -157.315136 -3.148022 118.459853 -0.199192 0.5803 0.1107 2.833004 1.184163 0.133284 -145.119503 0.185774 -179.186121 -66.972716 87.686846 80.225097 -152.199676 37.32955 -147.584435 -141.737833 -4.84542 -137.049632 155.445709 -3.134488 -161.75783 58.308507 -7.230654 -37.062035 -18.128412 -1.147928 138.666721 97.878341 46.268123 -87.543556 157.998365 4.194251 -88.450261 -139.92803 -44.860305 -87.962775 173.760697 -52.873327 -119.825365 -7.248244 14.038958 6.232661 0.056712 0.168123 -0.031085 21.6693 46.14024 -17.586355 0.015126 -1.323192 0.415608 154.126871 12.763417 -170.108062 -0.708613 1.877969 -0.652396 -14.531788 41.807213 -8.483247 -179.99999 75.750302 -1e-05 158.720813 -30.823175 -136.414989 -134.961324 -48.224772 -35.347397 87.6591 60.137762 0.768149 -0.0 0.000553 6.1e-05 1.720455 0.607201 80.486448 44.359116 10.677379 -121.269352 138.749245 26.473856 -34.324346
-5.5158 82.2931 -6.440300000000001 -177.760859 -60.244095 159.015458 -9.510473 42.288305 -20.326313 5.589309 -7.513444 38.113225 -15.021195 24.816426 -69.446239 41.601271 -2.06725 31.334227 -0.003086 0.0 -0.002411 0.002408 0.0 0.000433 -130.419092 54.548493 134.286401 109.389141 -10.667682 150.914802 -44.784844 74.456345 133.286305 -5.872742 -9.371314 -3.444768 71.831611 -48.263102 25.791866 -155.340649 -26.402334 127.363863 -0.327628 0.529722 0.187245 -65.768836 48.403204 50.659588 -36.036639 51.722791 29.832851 -7.190032 26.202364 6.140839 -145.099393 -1.522107 -178.650001 -23.841799 -71.890879 -45.207626 11.505499 38.471403 9.762815 -33.457288 -46.448055 -33.290676 87.226128 68.08296 -90.395834 103.36665 -6.715724 -124.861327 4.846947 -17.044447 140.162278 129.55127 36.011783 -120.972246 4.034167 3.931781 -0.755709 137.17128 -40.285446 -116.517824 173.38492 -52.451452 -119.983005 -132.784477 -69.135907 -72.870676 0.057309 0.167932 -0.032082 172.071659 -31.344789 -144.106662 145.123039 1.080682 179.467692 -12.048551 44.687428 3.863173 -6.227206 18.789748 -5.573489 165.726396 69.504818 148.923439 -179.991588 75.74946 -0.005756 147.726171 -45.472503 -100.44955 -126.252028 -11.774931 -1.804017 8.612704 -66.160958 104.649621 179.996901 75.74946 0.003197 -160.505589 81.138237 -0.0 26.97054 49.336487 117.381672 -95.362981 -30.515251 -170.973581
-6.596 81.8858 -8.6459 -176.593241 -63.594661 157.589413 -5.556234 40.915253 -43.004214 7.219332 -4.277844 58.460006 2.331741 33.364258 152.979565 -20.290252 43.263074 172.485126 0.003439 0.0 0.00384 -0.002125 -0.0 0.000751 -159.220764 -48.724877 170.568198 68.760851 25.592252 -87.469701 162.128892 48.307761 -79.73383 -13.932291 21.265087 0.817431 -170.568043 -8.250189 89.949158 -34.399625 -27.190708 5.302904 -93.641254 40.182009 78.832955 -5.146668 17.717695 -1.218616 21.548772 -58.001198 0.001556 -129.325273 52.062365 118.354799 -69.296765 72.947606 87.016281 4.857879 -26.689459 -8.055427 -148.608802 23.708641 -144.776176 -94.287022 -50.108411 -93.168162 -3.268684 -26.755858 5.241443 -109.137238 38.543726 69.339834 78.198471 -31.04832 -62.827147 162.923627 -44.752933 -170.49316 143.80899 16.628328 -83.798447 -57.801024 -54.426355 -42.407257 83.732338 42.331065 -69.990203 164.907734 -11.110939 -114.41474 -173.12162 -66.297533 -137.613341 1.545413 12.578615 -2.44751 145.061433 -3.309789 178.087252 -12.076997 26.167477 6.008813 -3.763038 10.729453 -3.416986 154.222642 35.809104 148.210929 179.998416 75.750388 -0.0 122.07792 -60.224679 -180.0 -155.895275 -41.797436 11.978286 -65.414839 -32.793439 27.105233 -6.7e-05 0.001589 -0.0 4.325415 6.349065 -0.39366 -12.280002 50.002885 -97.966042 -85.263 69.171083 -173.94843
